# xmcd CD database file
#
# Track frame offsets:
#	150
#	16334
#	33648
#	52151
#	68723
#	86078
#	102817
#	120334
#	137471
#	153774
#	171312
#	188761
#	205878
#	222707
#	239613
#	256908
#
# Disc length: 3654 seconds
#
# Revision: 3
# Processed by: cddbd v1.5.2PL0 Copyright (c) Steve Scherf et al.
# Submitted via: CDex 1.82
#
DISCID=e10e4410
DTITLE=Al Stevens - 40 Years
DYEAR=1900
DGENRE=Country
TTITLE0=Yakety Yak
TTITLE1=I would like to see you again
TTITLE2=The river
TTITLE3=Hello my baby
TTITLE4=Adilida
TTITLE5=Peg of my heart
TTITLE6=Rocky mountain music
TTITLE7=Sold
TTITLE8=Knock, knock, knock
TTITLE9=I just want to dance with you
TTITLE10=Don't come running back to me
TTITLE11=Sea of heartbreak
TTITLE12=When will I be loved
TTITLE13=Are you teasing me
TTITLE14=I can see clearly now
TTITLE15=Snap your fingers
EXTD=
EXTT0=
EXTT1=
EXTT2=
EXTT3=
EXTT4=
EXTT5=
EXTT6=
EXTT7=
EXTT8=
EXTT9=
EXTT10=
EXTT11=
EXTT12=
EXTT13=
EXTT14=
EXTT15=
PLAYORDER=
